# AST/ASF file generated using VICON BodyLanguage
# -----------------------------------------------
:version 1.10
:name VICON
:units
  mass 1.0
  length 0.45
  angle deg
:documentation
   .ast/.asf automatically generated from VICON data using
   VICON BodyBuilder and BodyLanguage model FoxedUp or BRILLIANT.MOD
:root
   order TX TY TZ RX RY RZ
   axis XYZ
   position 0 0 0  
   orientation 0 0 0 
:bonedata
  begin
     id 1 
     name lhipjoint
     direction 0.584852 -0.759097 0.285867 
     length 2.43633 
     axis 0 0 0  XYZ
  end
  begin
     id 2 
     name lfemur
     direction 0.34202 -0.939693 0  
     length 7.14704  
     axis 0 0 20  XYZ
    dof rx ry rz
    limits (-160.0 20.0)
           (-70.0 70.0)
           (-60.0 70.0)
  end
  begin
     id 3 
     name ltibia
     direction 0.342022 -0.939692 0   
     length 7.68483   
     axis 0 0 20   XYZ
    dof rx
    limits (-10.0 170.0)
  end
  begin
     id 4 
     name lfoot
     direction 0.0999605 -0.274639 0.956337   
     length 2.40452   
     axis -90 7.62852e-016 20   XYZ
    dof rx rz
    limits (-45.0 90.0)
           (-70.0 20.0)
  end
  begin
     id 5 
     name ltoes
     direction 1.53468e-011 -4.21881e-011 1   
     length 1.19837   
     axis -90 7.62852e-016 20   XYZ
    dof rx
    limits (-90.0 20.0)
  end
  begin
     id 6 
     name rhipjoint
     direction -0.569886 -0.769002 0.289597   
     length 2.40495  
     axis 0 0 0  XYZ 
  end
  begin
     id 7 
     name rfemur
     direction -0.34202 -0.939693 0   
     length 7.45086   
     axis 0 0 -20   XYZ
    dof rx ry rz
    limits (-160.0 20.0)
           (-70.0 70.0)
           (-70.0 60.0)
  end
  begin
     id 8 
     name rtibia
     direction -0.34202 -0.939693 0   
     length 7.76831   
     axis 0 0 -20   XYZ
    dof rx
    limits (-10.0 170.0)
 end
 begin
     id 9 
     name rfoot
     direction -0.0798572 -0.219406 0.97236   
     length 2.35911  
     axis -90 -7.62852e-016 -20   XYZ
    dof rx rz
    limits (-45.0 90.0)
           (-20.0 70.0)
  end
  begin
     id 10 
     name rtoes
     direction -1.53469e-011 -4.21728e-011 1   
     length 1.18261   
     axis -90 -7.62852e-016 -20   XYZ
    dof rx
    limits (-90.0 20.0)
  end
  begin
     id 11 
     name lowerback
     direction 0.0242088 0.999437 0.0232389   
     length 2.1561   
     axis 0 0 0   XYZ
    dof rx ry rz
    limits (-20.0 45.0)
           (-30.0 30.0)
           (-30.0 30.0)
  end
  begin
     id 12 
     name upperback
     direction -0.0356893 0.999013 -0.0264323   
     length 2.14431   
     axis 0 0 0   XYZ
    dof rx ry rz
    limits (-20.0 45.0)
           (-30.0 30.0)
           (-30.0 30.0)
  end
  begin
     id 13 
     name thorax
     direction -0.0472163 0.998194 -0.0371284   
     length 2.16169   
     axis 0 0 0   XYZ
    dof rx ry rz
    limits (-20.0 45.0)
           (-30.0 30.0)
           (-30.0 30.0)
  end
  begin
     id 14 
     name lowerneck
     direction 0.00863244 0.999921 0.00911972   
     length 1.58651   
     axis 0 0 0   XYZ
    dof rx ry rz
    limits (-20.0 45.0)
           (-30.0 30.0)
           (-30.0 30.0)
  end
  begin
     id 15 
     name upperneck
     direction 0.149523 0.979068 -0.138086   
     length 1.57486   
     axis 0 0 0   XYZ
    dof rx ry rz
    limits (-20.0 45.0)
           (-30.0 30.0)
           (-30.0 30.0)
  end
  begin
     id 16
     name head
     direction 0.0445219 0.997708 -0.0509576  
     length 1.6019  
     axis 0 0 0   XYZ
    dof rx ry rz
    limits (-20.0 45.0)
           (-30.0 30.0)
           (-30.0 30.0)
  end
  begin
     id 17 
     name lclavicle
     direction 0.911271 0.381667 -0.154644  
     length 3.80848  
     axis 0 0 0   XYZ
    dof ry rz
    limits (-20.0 10.0)
           (0.0 20.0)
  end
  begin
     id 18 
     name lhumerus
     direction 1 -4.49003e-011 2.1308e-027   
     length 5.19069   
     axis 180 -30 -90   XYZ
    dof rx ry rz
    limits (-60.0 90.0)
           (-90.0 90.0)
           (-90.0 90.0)
  end
  begin
     id 19
     name lradius
     direction 1 -4.48914e-011 4.01554e-027   
     length 3.30016   
     axis 180 -30 -90   XYZ
    dof rx
    limits (-10.0 170.0)
  end
  begin
     id 20
     name lwrist
     direction 1 -4.49003e-011 1.1934e-026   
     length 1.65008   
     axis -8.46377e-015 90 90   XYZ
    dof ry
    limits (-180.0 0.0)
 end
  begin
     id 21 
     name lhand
     direction 1 -4.49034e-011 2.38659e-026   
     length 0.707698   
     axis -1.52313e-014 90 90   XYZ
    dof rx rz
    limits (-90.0 90.0)
           (-45.0 45.0)
  end
  begin
     id 22 
     name lfingers
     direction 1 -4.48691e-011 4.77775e-026   
     length 0.570564   
     axis -3.04623e-014 90 90   XYZ
    dof rx
    limits (0.0 90.0)
  end
  begin
     id 23
     name lthumb
     direction 0.707107 -6.34832e-011 0.707107   
     length 0.819219   
     axis -90 45 -1.62303e-014   XYZ
    dof rx rz
    limits (-45.0 45.0)
           (-45.0 45.0)
  end
  begin
     id 24 
     name rclavicle
     direction -0.815579 0.573708 -0.0754329   
     length 3.54371  
     axis 0 0 0   XYZ 
    dof ry rz
    limits (-10.0 20.0)
           (-20.0 0.0)
  end
  begin
     id 25 
     name rhumerus
     direction -1 -4.48956e-011 3.05351e-028  
     length 5.23924   
     axis 180 30 90   XYZ
    dof rx ry rz
    limits (-90.0 60.0)
           (-90.0 90.0)
           (-90.0 90.0)
  end
  begin
     id 26 
     name rradius
     direction -1 -4.49013e-011 3.53849e-027   
     length 3.32953   
     axis 180 30 90   XYZ
    dof rx
    limits (-10.0 170.0)
  end
  begin
     id 27 
     name rwrist
     direction -1 -4.48901e-011 1.19374e-026   
     length 1.66477   
     axis -8.46377e-015 -90 -90   XYZ
    dof ry
    limits (-180.0 0.0)
  end
  begin
     id 28
     name rhand
     direction -1 -4.48877e-011 2.38764e-026   
     length 0.607414   
     axis -1.52313e-014 -90 -90   XYZ
    dof rx rz
    limits (-90.0 90.0)
           (-45.0 45.0)
  end
  begin
     id 29
     name rfingers
     direction -1 -4.48882e-011 4.77521e-026   
     length 0.489712   
     axis -3.04623e-014 -90 -90   XYZ
    dof rx
    limits (0.0 90.0)
  end
  begin
     id 30
     name rthumb
     direction -0.707107 -6.34974e-011 0.707107   
     length 0.703132   
     axis -90 -45 1.62303e-014   XYZ
    dof rx rz
    limits (-45.0 45.0)
           (-45.0 45.0)
  end
:hierarchy
  begin
    root lhipjoint rhipjoint lowerback
    lhipjoint lfemur
    lfemur ltibia
    ltibia lfoot
    lfoot ltoes
    rhipjoint rfemur
    rfemur rtibia
    rtibia rfoot
    rfoot rtoes
    lowerback upperback
    upperback thorax
    thorax lowerneck lclavicle rclavicle
    lowerneck upperneck
    upperneck head
    lclavicle lhumerus
    lhumerus lradius
    lradius lwrist
    lwrist lhand lthumb
    lhand lfingers
    rclavicle rhumerus
    rhumerus rradius
    rradius rwrist
    rwrist rhand rthumb
    rhand rfingers
  end

#!OML:ASF E:\VariousWalksJay\Project 1\Capture day 1\Session 1\Actor2.ASF
:FULLY-SPECIFIED
:DEGREES
83
root 25.3059 16.6441 47.102 169.993 -64.0062 -169.234
lowerback -2.00132 1.2629 5.60606
upperback 5.32567 1.35029 -1.37417
thorax 6.87742 0.961326 -4.48726
lowerneck -11.1192 -2.1204 -0.646297
upperneck 6.87443 -4.13211 11.7016
head 4.1622 -1.52524 3.41754
rclavicle 4.07509e-015 2.22639e-014
rhumerus -33.8154 1.6746 -86.0259
rradius 36.3679
rwrist -1.81642
rhand -11.4766 -9.11436
rfingers 7.12502
rthumb 14.5613 -38.5833
lclavicle 4.07509e-015 2.22639e-014
lhumerus -20.6469 -15.3698 84.1034
lradius 23.5147
lwrist 7.82788
lhand -6.40491 -9.68007
lfingers 7.12502
lthumb 19.4431 19.3678
rfemur -11.7435 -2.0342 25.8022
rtibia 32.6051
rfoot -13.5709 -15.4779
rtoes -27.485
lfemur -10.634 12.0099 -14.3843
ltibia 32.7995
lfoot -17.2941 9.90757
ltoes -29.8136
84
root 25.3063 16.646 47.1019 169.893 -63.9205 -169.155
lowerback -1.98624 1.30123 5.65485
upperback 5.34687 1.39637 -1.34114
thorax 6.89817 0.986308 -4.4761
lowerneck -11.1415 -2.14769 -0.682545
upperneck 6.97771 -4.16942 11.669
head 4.19949 -1.54031 3.41086
rclavicle -3.32964e-014 3.18055e-015
rhumerus -33.8188 1.73031 -86.0224
rradius 36.317
rwrist -1.87955
rhand -11.4595 -9.06843
rfingers 7.12502
rthumb 14.5778 -38.5361
lclavicle -3.32964e-014 3.18055e-015
lhumerus -20.6265 -15.2406 84.0997
lradius 23.4258
lwrist 7.73865
lhand -6.45081 -9.66153
lfingers 7.12502
lthumb 19.3989 19.3908
rfemur -11.6511 -1.91971 25.8595
rtibia 32.4831
rfoot -13.5767 -15.4801
rtoes -27.3104
lfemur -10.6845 11.9334 -14.2387
ltibia 33.0304
lfoot -17.3537 9.56902
ltoes -29.9687
85
root 25.3064 16.6477 47.1019 169.847 -63.8267 -169.127
lowerback -1.9751 1.33697 5.68947
upperback 5.36093 1.44052 -1.31709
thorax 6.913 1.00965 -4.46654
lowerneck -11.1425 -2.16755 -0.732052
upperneck 7.07101 -4.1948 11.6511
head 4.23001 -1.55039 3.41189
rclavicle -3.04141e-014 -2.38542e-015
rhumerus -33.8188 1.78785 -86.0219
rradius 36.2611
rwrist -1.95035
rhand -11.4377 -9.02415
rfingers 7.12502
rthumb 14.5988 -38.4903
lclavicle -3.04141e-014 -2.38542e-015
lhumerus -20.6229 -15.0932 84.089
lradius 23.3452
lwrist 7.65391
lhand -6.49918 -9.64476
lfingers 7.12502
lthumb 19.3524 19.4123
rfemur -11.579 -1.8496 25.8889
rtibia 32.3816
rfoot -13.5989 -15.4251
rtoes -27.0875
lfemur -10.7079 11.8227 -14.1144
ltibia 33.2109
lfoot -17.4121 9.23762
ltoes -30.1553
86
root 25.3058 16.6492 47.1008 169.835 -63.7271 -169.138
lowerback -1.98741 1.37021 5.68368
upperback 5.38212 1.48132 -1.28313
thorax 6.94668 1.02947 -4.42351
lowerneck -11.1163 -2.18048 -0.810344
upperneck 7.1318 -4.20312 11.6449
head 4.24578 -1.5544 3.42264
rclavicle 5.96354e-016 1.59028e-015
rhumerus -33.8056 1.85924 -86.0023
rradius 36.2127
rwrist -2.02383
rhand -11.4065 -8.9818
rfingers 7.12502
rthumb 14.6289 -38.4458
lclavicle 5.96354e-016 1.59028e-015
lhumerus -20.6183 -14.908 84.089
lradius 23.265
lwrist 7.5634
lhand -6.55085 -9.63261
lfingers 7.12502
lthumb 19.3028 19.4294
rfemur -11.5148 -1.81578 25.9019
rtibia 32.3035
rfoot -13.6305 -15.3321
rtoes -26.8621
lfemur -10.694 11.6959 -13.9998
ltibia 33.3422
lfoot -17.4761 8.9009
ltoes -30.3591
87
root 25.3047 16.6505 47.0988 169.86 -63.6314 -169.187
lowerback -2.02454 1.40247 5.63685
upperback 5.41003 1.52099 -1.24252
thorax 6.9998 1.04692 -4.34989
lowerneck -11.0646 -2.19195 -0.903006
upperneck 7.15499 -4.20317 11.6453
head 4.2457 -1.55674 3.43844
rclavicle 2.57426e-014 2.94201e-014
rhumerus -33.7771 1.93685 -85.9655
rradius 36.1627
rwrist -2.09563
rhand -11.3817 -8.92926
rfingers 7.12502
rthumb 14.6528 -38.3915
lclavicle 2.57426e-014 2.94201e-014
lhumerus -20.6136 -14.7127 84.1011
lradius 23.1904
lwrist 7.47843
lhand -6.60183 -9.62535
lfingers 7.12502
lthumb 19.2537 19.4416
rfemur -11.4618 -1.82243 25.896
rtibia 32.2496
rfoot -13.668 -15.2054
rtoes -26.6494
lfemur -10.6483 11.5517 -13.8998
ltibia 33.427
lfoot -17.5448 8.56915
ltoes -30.5654
